<?xml version='1.0' encoding='UTF-8'?>
<svg width="66mm" height="66mm" version="1.1" viewBox="0 0 66 66" xmlns="http://www.w3.org/2000/svg"><path d="M4,4H6V6H4zM6,4H8V6H6zM8,4H10V6H8zM10,4H12V6H10zM12,4H14V6H12zM14,4H16V6H14zM16,4H18V6H16zM26,4H28V6H26zM28,4H30V6H28zM30,4H32V6H30zM32,4H34V6H32zM34,4H36V6H34zM40,4H42V6H40zM42,4H44V6H42zM48,4H50V6H48zM50,4H52V6H50zM52,4H54V6H52zM54,4H56V6H54zM56,4H58V6H56zM58,4H60V6H58zM60,4H62V6H60zM4,6H6V8H4zM16,6H18V8H16zM24,6H26V8H24zM26,6H28V8H26zM30,6H32V8H30zM32,6H34V8H32zM34,6H36V8H34zM38,6H40V8H38zM44,6H46V8H44zM48,6H50V8H48zM60,6H62V8H60zM4,8H6V10H4zM8,8H10V10H8zM10,8H12V10H10zM12,8H14V10H12zM16,8H18V10H16zM24,8H26V10H24zM26,8H28V10H26zM32,8H34V10H32zM34,8H36V10H34zM36,8H38V10H36zM38,8H40V10H38zM44,8H46V10H44zM48,8H50V10H48zM52,8H54V10H52zM54,8H56V10H54zM56,8H58V10H56zM60,8H62V10H60zM4,10H6V12H4zM8,10H10V12H8zM10,10H12V12H10zM12,10H14V12H12zM16,10H18V12H16zM22,10H24V12H22zM26,10H28V12H26zM28,10H30V12H28zM32,10H34V12H32zM34,10H36V12H34zM36,10H38V12H36zM40,10H42V12H40zM42,10H44V12H42zM48,10H50V12H48zM52,10H54V12H52zM54,10H56V12H54zM56,10H58V12H56zM60,10H62V12H60zM4,12H6V14H4zM8,12H10V14H8zM10,12H12V14H10zM12,12H14V14H12zM16,12H18V14H16zM24,12H26V14H24zM26,12H28V14H26zM28,12H30V14H28zM30,12H32V14H30zM34,12H36V14H34zM36,12H38V14H36zM48,12H50V14H48zM52,12H54V14H52zM54,12H56V14H54zM56,12H58V14H56zM60,12H62V14H60zM4,14H6V16H4zM16,14H18V16H16zM20,14H22V16H20zM24,14H26V16H24zM26,14H28V16H26zM28,14H30V16H28zM30,14H32V16H30zM34,14H36V16H34zM36,14H38V16H36zM38,14H40V16H38zM42,14H44V16H42zM44,14H46V16H44zM48,14H50V16H48zM60,14H62V16H60zM4,16H6V18H4zM6,16H8V18H6zM8,16H10V18H8zM10,16H12V18H10zM12,16H14V18H12zM14,16H16V18H14zM16,16H18V18H16zM20,16H22V18H20zM24,16H26V18H24zM28,16H30V18H28zM32,16H34V18H32zM36,16H38V18H36zM40,16H42V18H40zM44,16H46V18H44zM48,16H50V18H48zM50,16H52V18H50zM52,16H54V18H52zM54,16H56V18H54zM56,16H58V18H56zM58,16H60V18H58zM60,16H62V18H60zM22,18H24V20H22zM24,18H26V20H24zM32,18H34V20H32zM34,18H36V20H34zM38,18H40V20H38zM44,18H46V20H44zM4,20H6V22H4zM10,20H12V22H10zM14,20H16V22H14zM16,20H18V22H16zM20,20H22V22H20zM28,20H30V22H28zM30,20H32V22H30zM32,20H34V22H32zM36,20H38V22H36zM42,20H44V22H42zM46,20H48V22H46zM50,20H52V22H50zM6,22H8V24H6zM10,22H12V24H10zM14,22H16V24H14zM26,22H28V24H26zM28,22H30V24H28zM30,22H32V24H30zM32,22H34V24H32zM36,22H38V24H36zM44,22H46V24H44zM46,22H48V24H46zM48,22H50V24H48zM54,22H56V24H54zM60,22H62V24H60zM6,24H8V26H6zM8,24H10V26H8zM10,24H12V26H10zM12,24H14V26H12zM16,24H18V26H16zM20,24H22V26H20zM22,24H24V26H22zM24,24H26V26H24zM28,24H30V26H28zM32,24H34V26H32zM38,24H40V26H38zM42,24H44V26H42zM46,24H48V26H46zM48,24H50V26H48zM54,24H56V26H54zM56,24H58V26H56zM58,24H60V26H58zM4,26H6V28H4zM8,26H10V28H8zM22,26H24V28H22zM24,26H26V28H24zM28,26H30V28H28zM30,26H32V28H30zM32,26H34V28H32zM42,26H44V28H42zM48,26H50V28H48zM50,26H52V28H50zM56,26H58V28H56zM58,26H60V28H58zM6,28H8V30H6zM8,28H10V30H8zM12,28H14V30H12zM14,28H16V30H14zM16,28H18V30H16zM22,28H24V30H22zM24,28H26V30H24zM28,28H30V30H28zM30,28H32V30H30zM38,28H40V30H38zM44,28H46V30H44zM46,28H48V30H46zM48,28H50V30H48zM54,28H56V30H54zM58,28H60V30H58zM60,28H62V30H60zM6,30H8V32H6zM8,30H10V32H8zM10,30H12V32H10zM20,30H22V32H20zM22,30H24V32H22zM24,30H26V32H24zM26,30H28V32H26zM28,30H30V32H28zM38,30H40V32H38zM42,30H44V32H42zM44,30H46V32H44zM4,32H6V34H4zM6,32H8V34H6zM10,32H12V34H10zM14,32H16V34H14zM16,32H18V34H16zM18,32H20V34H18zM30,32H32V34H30zM38,32H40V34H38zM48,32H50V34H48zM50,32H52V34H50zM52,32H54V34H52zM54,32H56V34H54zM56,32H58V34H56zM58,32H60V34H58zM60,32H62V34H60zM6,34H8V36H6zM8,34H10V36H8zM10,34H12V36H10zM12,34H14V36H12zM20,34H22V36H20zM24,34H26V36H24zM28,34H30V36H28zM30,34H32V36H30zM32,34H34V36H32zM36,34H38V36H36zM38,34H40V36H38zM40,34H42V36H40zM42,34H44V36H42zM44,34H46V36H44zM46,34H48V36H46zM48,34H50V36H48zM52,34H54V36H52zM54,34H56V36H54zM58,34H60V36H58zM4,36H6V38H4zM6,36H8V38H6zM8,36H10V38H8zM12,36H14V38H12zM14,36H16V38H14zM16,36H18V38H16zM22,36H24V38H22zM24,36H26V38H24zM28,36H30V38H28zM34,36H36V38H34zM38,36H40V38H38zM44,36H46V38H44zM46,36H48V38H46zM58,36H60V38H58zM20,38H22V40H20zM22,38H24V40H22zM24,38H26V40H24zM26,38H28V40H26zM30,38H32V40H30zM32,38H34V40H32zM40,38H42V40H40zM46,38H48V40H46zM48,38H50V40H48zM50,38H52V40H50zM54,38H56V40H54zM60,38H62V40H60zM4,40H6V42H4zM8,40H10V42H8zM10,40H12V42H10zM12,40H14V42H12zM16,40H18V42H16zM22,40H24V42H22zM26,40H28V42H26zM28,40H30V42H28zM38,40H40V42H38zM40,40H42V42H40zM44,40H46V42H44zM46,40H48V42H46zM52,40H54V42H52zM58,40H60V42H58zM60,40H62V42H60zM8,42H10V44H8zM12,42H14V44H12zM18,42H20V44H18zM24,42H26V44H24zM26,42H28V44H26zM28,42H30V44H28zM32,42H34V44H32zM34,42H36V44H34zM38,42H40V44H38zM44,42H46V44H44zM46,42H48V44H46zM48,42H50V44H48zM58,42H60V44H58zM60,42H62V44H60zM4,44H6V46H4zM10,44H12V46H10zM12,44H14V46H12zM14,44H16V46H14zM16,44H18V46H16zM18,44H20V46H18zM22,44H24V46H22zM24,44H26V46H24zM30,44H32V46H30zM32,44H34V46H32zM34,44H36V46H34zM36,44H38V46H36zM44,44H46V46H44zM46,44H48V46H46zM48,44H50V46H48zM50,44H52V46H50zM52,44H54V46H52zM56,44H58V46H56zM20,46H22V48H20zM22,46H24V48H22zM26,46H28V48H26zM28,46H30V48H28zM30,46H32V48H30zM32,46H34V48H32zM36,46H38V48H36zM38,46H40V48H38zM40,46H42V48H40zM44,46H46V48H44zM52,46H54V48H52zM56,46H58V48H56zM58,46H60V48H58zM60,46H62V48H60zM4,48H6V50H4zM6,48H8V50H6zM8,48H10V50H8zM10,48H12V50H10zM12,48H14V50H12zM14,48H16V50H14zM16,48H18V50H16zM28,48H30V50H28zM32,48H34V50H32zM36,48H38V50H36zM38,48H40V50H38zM40,48H42V50H40zM44,48H46V50H44zM48,48H50V50H48zM52,48H54V50H52zM58,48H60V50H58zM4,50H6V52H4zM16,50H18V52H16zM20,50H22V52H20zM22,50H24V52H22zM26,50H28V52H26zM28,50H30V52H28zM30,50H32V52H30zM36,50H38V52H36zM40,50H42V52H40zM44,50H46V52H44zM52,50H54V52H52zM54,50H56V52H54zM56,50H58V52H56zM58,50H60V52H58zM60,50H62V52H60zM4,52H6V54H4zM8,52H10V54H8zM10,52H12V54H10zM12,52H14V54H12zM16,52H18V54H16zM22,52H24V54H22zM26,52H28V54H26zM32,52H34V54H32zM34,52H36V54H34zM36,52H38V54H36zM38,52H40V54H38zM40,52H42V54H40zM44,52H46V54H44zM46,52H48V54H46zM48,52H50V54H48zM50,52H52V54H50zM52,52H54V54H52zM4,54H6V56H4zM8,54H10V56H8zM10,54H12V56H10zM12,54H14V56H12zM16,54H18V56H16zM20,54H22V56H20zM22,54H24V56H22zM48,54H50V56H48zM50,54H52V56H50zM52,54H54V56H52zM54,54H56V56H54zM56,54H58V56H56zM58,54H60V56H58zM4,56H6V58H4zM8,56H10V58H8zM10,56H12V58H10zM12,56H14V58H12zM16,56H18V58H16zM22,56H24V58H22zM24,56H26V58H24zM26,56H28V58H26zM28,56H30V58H28zM30,56H32V58H30zM32,56H34V58H32zM42,56H44V58H42zM52,56H54V58H52zM54,56H56V58H54zM56,56H58V58H56zM60,56H62V58H60zM4,58H6V60H4zM16,58H18V60H16zM22,58H24V60H22zM24,58H26V60H24zM38,58H40V60H38zM44,58H46V60H44zM46,58H48V60H46zM48,58H50V60H48zM58,58H60V60H58zM4,60H6V62H4zM6,60H8V62H6zM8,60H10V62H8zM10,60H12V62H10zM12,60H14V62H12zM14,60H16V62H14zM16,60H18V62H16zM20,60H22V62H20zM22,60H24V62H22zM28,60H30V62H28zM30,60H32V62H30zM32,60H34V62H32zM38,60H40V62H38zM44,60H46V62H44zM46,60H48V62H46zM50,60H52V62H50zM52,60H54V62H52zM58,60H60V62H58z" id="qr-path" fill="#000000" fill-opacity="1" fill-rule="nonzero" stroke="none"/></svg>